<svg xmlns="http://www.w3.org/2000/svg" width="133.583" height="146.532" viewBox="0 0 133.583 146.532">
  <defs>
    <style>
      .cls-1 {
        fill: none;
      }

      .cls-1, .cls-2, .cls-3 {
        stroke: #000;
        stroke-width: 2px;
      }

      .cls-3 {
        fill: #51da7f;
      }

      .cls-4 {
        fill: #ffb52b;
      }
    </style>
  </defs>
  <g id="Eye_2_linear" data-name="Eye 2 linear" transform="translate(-0.024 1.225)">
    <path id="Path_9" data-name="Path 9" class="cls-1" d="M73.886,166.347c9.178-9.078,18.311-18.321,31-16,6.521,1.756,16.4,4.627,18,15,1.506,9.78,15.78,15.605,28,7,14.013-9.867,54.172-62.792,19-80" transform="translate(-51.352 -46.581)"/>
    <path id="Path_10" data-name="Path 10" class="cls-2" d="M119.084,55.835a17.119,17.119,0,0,1,17,17c0,9.3-7.705,16-17,16s-17-6.7-17-16A17.119,17.119,0,0,1,119.084,55.835Z" transform="translate(-52.55 -45.069)"/>
    <path id="Path_15" data-name="Path 15" class="cls-3" d="M31.192,0A31.172,31.172,0,1,1,0,31.176,31.169,31.169,0,0,1,31.192,0Z" transform="matrix(-0.259, 0.966, -0.966, -0.259, 126.138, 16.136)"/>
    <path id="Path_11" data-name="Path 11" class="cls-4" d="M112.446,162.446h0c-30.449-.119-31-31-31-31s.448,30.881-30,31h0c30.448.119,30,31,30,31s.552-30.881,31-31h0C112.419,162.444,112.475,162.446,112.446,162.446Z" transform="translate(-50.411 -48.18)"/>
    <path id="Path_12" data-name="Path 12" d="M112.425,162.446h0v-1h0Zm0,0v-1h-1v1Zm-61,0h0v-1h0Zm-1,0v-1h0v1Zm0,0Zm1,0Zm61,0h0Zm0,0Zm-61-1h0v1h0Zm0,0h-1v1h1Zm-1,1Zm0,0h1v-1h-1Zm0,0Zm0,0h1v-1h-1Zm1-1h-1v1h1Zm0,1h0v-1h0Zm61,0h0v-1h0Zm0-1h0v1h0Zm0,0h0v1h0Zm0,1h0v-1h0Zm0-1h0v1h0Zm-1,1Zm0,0Zm1,0h0v-1h0Zm0,0v1h0Zm-31-31h0Zm-30,31v1h0Zm0,0v-1h0Zm30,31h0Zm31-31v-1h0Zm0,0v0Zm0,1h0v-2h0Zm0-2h0v2h0Zm0,0c-7.441-.029-13.892-2.2-18-5s-6.152-6.24-8-10a46.216,46.216,0,0,1-4-11,16.8,16.8,0,0,1,0-3c-.029-.41.007-.784,0-1,0-.107,0,.053,0,0,0-.027,0,.013,0,0h-1c-.958,0-1,0-1,0h0s0-.009,0,0,0-.033,0,0c0,.063,0-.119,0,0,.008.238-.031.565,0,1,.061.871.756,2.517,1,4a37.563,37.563,0,0,0,3,11,27.013,27.013,0,0,0,9,11c4.456,3.034,11.217,4.97,19,5Zm-31-30h-1s0-.007,0,0,0-.027,0,0c0,.053,0-.107,0,0-.007.216.029.59,0,1a16.8,16.8,0,0,1,0,3,46.215,46.215,0,0,1-4,11c-1.848,3.76-3.885,7.2-8,10a29.494,29.494,0,0,1-17,5v2c7.783-.03,13.544-1.966,18-5a27.012,27.012,0,0,0,9-11,43.968,43.968,0,0,0,4-11,28.938,28.938,0,0,0,0-4c.031-.435-.008-.762,0-1,0-.119,0,.063,0,0,0-.033,0,.017,0,0h-1Zm-30,30h-1v2h1Zm-1,2h1v-2h-1Zm1-2h-1v2h1Zm-1,2h1v-2h-1Zm1,0a29.487,29.487,0,0,1,17,5c4.115,2.8,6.152,6.24,8,10s3.534,7.161,4,10a30.147,30.147,0,0,1,0,4c.029.409-.007.784,0,1,0,.107,0-.054,0,0,0,.026,0-.012,0,0s0,0,0,0h2c0-.017,0,.032,0,0,0-.064,0,.119,0,0-.008-.238.031-1.565,0-2a16.125,16.125,0,0,0,0-3,43.966,43.966,0,0,0-4-11,27.005,27.005,0,0,0-9-11c-4.456-3.034-10.217-4.969-18-5Zm30,30h1c0-.012,0,.026,0,0,0-.054,0,.107,0,0,.007-.216-.029-.591,0-1a30.179,30.179,0,0,1,0-4c.466-2.839,2.15-6.236,4-10s3.885-7.2,8-10,10.558-4.971,18-5v-2c-7.783.031-14.544,1.966-19,5a27.005,27.005,0,0,0-9,11,37.562,37.562,0,0,0-3,11c-.243,1.483-.939,2.129-1,3-.031.435.008,1.762,0,2,0,.119,0-.064,0,0,0,.032,0-.017,0,0s0,0,0,0,0,0,0,0h1Zm31-30h0v-2h0Zm0-2c-.075-.007.02,0,0,0v2h0Z" transform="translate(-50.391 -48.18)"/>
  </g>
</svg>
