<svg xmlns="http://www.w3.org/2000/svg" width="106" height="38" viewBox="0 0 106 38">
  <defs>
    <style>
      .cls-1 {
        fill: #fddc01;
      }

      .cls-2, .cls-3 {
        stroke: none;
      }

      .cls-3 {
        fill: #000;
      }
    </style>
  </defs>
  <g id="current" transform="translate(-115 -26)">
    <g id="Path_16" data-name="Path 16" class="cls-1" transform="translate(115 26)">
      <path class="cls-2" d="M 86 36.99994659423828 L 20 36.99994659423828 C 17.42542839050293 36.99994659423828 14.92899990081787 36.53304290771484 12.58007144927979 35.61223220825195 C 10.31531429290771 34.72441482543945 8.282342910766602 33.454345703125 6.537628650665283 31.83728790283203 C 2.966628551483154 28.527587890625 1 24.13311576843262 1 19.46338844299316 L 1 18.53655815124512 C 1 13.86683082580566 2.966628551483154 9.472358703613281 6.537628650665283 6.162659168243408 C 8.282342910766602 4.545601844787598 10.31531429290771 3.275530338287354 12.58007144927979 2.387716054916382 C 14.92899990081787 1.466901898384094 17.42542839050293 1.000001907348633 20 1.000001907348633 L 86 1.000001907348633 C 88.57456970214844 1.000001907348633 91.07099914550781 1.466901898384094 93.41992950439453 2.387716054916382 C 95.68468475341797 3.275530338287354 97.71765899658203 4.545601844787598 99.46237182617188 6.162659168243408 C 103.0333709716797 9.472358703613281 105 13.86683082580566 105 18.53655815124512 L 105 19.46338844299316 C 105 25.14290237426758 102.0484008789062 30.37831687927246 96.90201568603516 33.82720184326172 C 93.85523223876953 35.87337493896484 89.98378753662109 36.99994659423828 86 36.99994659423828 Z"/>
      <path class="cls-3" d="M 20 2.000003814697266 C 15.16356658935547 2.000003814697266 10.62395477294922 3.738803863525391 7.217399597167969 6.896097183227539 C 3.8529052734375 10.01438903808594 2 14.14838790893555 2 18.53655815124512 L 2 19.46338844299316 C 2 23.85155868530273 3.8529052734375 27.98555755615234 7.217399597167969 31.10385131835938 C 10.62395477294922 34.26114273071289 15.16356658935547 35.99994277954102 20 35.99994277954102 L 86 35.99994277954102 C 89.78733825683594 35.99994277954102 93.46078491210938 34.93368148803711 96.34529113769531 32.99649810791016 C 101.2099685668945 29.73640441894531 104 24.80377197265625 104 19.46338844299316 L 104 18.53655815124512 C 104 14.14838790893555 102.1470947265625 10.01438903808594 98.78260040283203 6.896097183227539 C 95.37604522705078 3.738803863525391 90.83643341064453 2.000003814697266 86 2.000003814697266 L 20 2.000003814697266 M 20 3.814697265625e-06 L 86 3.814697265625e-06 C 97.04569244384766 3.814697265625e-06 106 8.299097061157227 106 18.53655815124512 L 106 19.46338844299316 C 106 25.64682006835938 102.7333221435547 31.12309646606445 97.45870971679688 34.65791320800781 C 94.42022705078125 36.69851303100586 90.37409210205078 37.99994277954102 86 37.99994277954102 L 20 37.99994277954102 C 8.954307556152344 37.99994277954102 0 29.70085144042969 0 19.46338844299316 L 0 18.53655815124512 C 0 8.299097061157227 8.954307556152344 3.814697265625e-06 20 3.814697265625e-06 Z"/>
    </g>
  </g>
</svg>
