<svg id="follow-us" xmlns="http://www.w3.org/2000/svg" width="189" height="35" viewBox="0 0 189 35">
  <defs>
    <style>
      .cls-1 {
        fill: #fff;
      }

      .cls-2 {
        fill: #262525;
      }
    </style>
  </defs>
  <g id="youtube" transform="translate(103)">
    <g id="Group_21" data-name="Group 21">
      <circle id="Ellipse_36" data-name="Ellipse 36" class="cls-1" cx="17.5" cy="17.5" r="17.5"/>
    </g>
    <path id="_001-youtube" data-name="001-youtube" d="M20.128-4.072a2.452,2.452,0,0,0-1.811-1.617,67.319,67.319,0,0,0-8.041-.393A69.947,69.947,0,0,0,2.235-5.7,2.5,2.5,0,0,0,.423-4.072,21.679,21.679,0,0,0,0,.34,21.6,21.6,0,0,0,.423,4.753,2.453,2.453,0,0,0,2.235,6.37a67.442,67.442,0,0,0,8.041.393,69.947,69.947,0,0,0,8.041-.378,2.452,2.452,0,0,0,1.812-1.617A21.686,21.686,0,0,0,20.551.355,20.579,20.579,0,0,0,20.128-4.072ZM8.227,3.09v-5.5L13.577.34Zm0,0" transform="translate(7.45 17.214)"/>
  </g>
  <g id="ins">
    <g id="youtube-2" data-name="youtube">
      <g id="Group_21-2" data-name="Group 21">
        <circle id="Ellipse_36-2" data-name="Ellipse 36" class="cls-1" cx="17.5" cy="17.5" r="17.5"/>
      </g>
    </g>
    <g id="_002-instagram" data-name="002-instagram" transform="translate(8.135 8.135)">
      <path id="Path_38" data-name="Path 38" d="M19.24,5.539A6.883,6.883,0,0,0,18.8,3.253,4.826,4.826,0,0,0,16.045.5,6.9,6.9,0,0,0,13.759.059C12.751.011,12.43,0,9.872,0S6.994.011,5.989.055A6.888,6.888,0,0,0,3.7.493,4.6,4.6,0,0,0,2.032,1.582,4.638,4.638,0,0,0,.946,3.25,6.9,6.9,0,0,0,.508,5.535C.46,6.543.449,6.863.449,9.421S.46,12.3.5,13.3a6.882,6.882,0,0,0,.438,2.285A4.825,4.825,0,0,0,3.7,18.346a6.9,6.9,0,0,0,2.286.438c1,.044,1.325.055,3.883.055s2.878-.011,3.883-.055a6.885,6.885,0,0,0,2.286-.438,4.819,4.819,0,0,0,2.757-2.756,6.906,6.906,0,0,0,.438-2.285c.044-1,.055-1.325.055-3.883S19.284,6.543,19.24,5.539Zm-1.7,7.692a5.163,5.163,0,0,1-.324,1.748,3.125,3.125,0,0,1-1.789,1.789,5.184,5.184,0,0,1-1.748.324c-.994.044-1.292.055-3.806.055s-2.816-.011-3.806-.055a5.163,5.163,0,0,1-1.748-.324,2.9,2.9,0,0,1-1.082-.7,2.929,2.929,0,0,1-.7-1.082,5.182,5.182,0,0,1-.324-1.748c-.044-.994-.055-1.292-.055-3.805s.011-2.815.055-3.805a5.16,5.16,0,0,1,.324-1.748,2.863,2.863,0,0,1,.707-1.082,2.925,2.925,0,0,1,1.082-.7,5.187,5.187,0,0,1,1.748-.324c.994-.044,1.292-.055,3.806-.055s2.816.011,3.806.055a5.165,5.165,0,0,1,1.748.324,2.9,2.9,0,0,1,1.082.7,2.928,2.928,0,0,1,.7,1.082,5.184,5.184,0,0,1,.324,1.748c.044.994.055,1.292.055,3.805S17.587,12.237,17.543,13.23Zm0,0" transform="translate(-0.449 0)"/>
      <path id="Path_39" data-name="Path 39" d="M130.077,124.5a5.125,5.125,0,1,0,5.127,5.125A5.128,5.128,0,0,0,130.077,124.5Zm0,8.45a3.325,3.325,0,1,1,3.326-3.325A3.326,3.326,0,0,1,130.077,132.95Zm0,0" transform="translate(-120.654 -120.204)"/>
      <path id="Path_40" data-name="Path 40" d="M364.99,89.872a1.271,1.271,0,1,1-1.271-1.27A1.271,1.271,0,0,1,364.99,89.872Zm0,0" transform="translate(-349.35 -85.396)"/>
    </g>
  </g>
  <g id="twitter" transform="translate(154)">
    <g id="youtube-3" data-name="youtube">
      <g id="Group_21-3" data-name="Group 21">
        <circle id="Ellipse_36-3" data-name="Ellipse 36" class="cls-1" cx="17.5" cy="17.5" r="17.5"/>
      </g>
    </g>
    <g id="_005-twitter" data-name="005-twitter" transform="translate(8.615 10.481)">
      <g id="Group_19" data-name="Group 19">
        <path id="Path_41" data-name="Path 41" class="cls-2" d="M18.356,49.766a7.846,7.846,0,0,1-2.168.594,3.742,3.742,0,0,0,1.655-2.08,7.52,7.52,0,0,1-2.386.911,3.763,3.763,0,0,0-6.509,2.573,3.875,3.875,0,0,0,.087.858,10.651,10.651,0,0,1-7.756-3.936,3.764,3.764,0,0,0,1.156,5.029,3.716,3.716,0,0,1-1.7-.463v.041a3.78,3.78,0,0,0,3.015,3.7,3.756,3.756,0,0,1-.987.124,3.327,3.327,0,0,1-.712-.064,3.8,3.8,0,0,0,3.516,2.621A7.561,7.561,0,0,1,.9,61.277a7.048,7.048,0,0,1-.9-.052,10.594,10.594,0,0,0,5.773,1.689A10.637,10.637,0,0,0,16.483,52.206c0-.166-.006-.327-.014-.486A7.507,7.507,0,0,0,18.356,49.766Z" transform="translate(0 -48)"/>
      </g>
    </g>
  </g>
  <g id="snapchat" transform="translate(52)">
    <g id="youtube-4" data-name="youtube">
      <g id="Group_21-4" data-name="Group 21">
        <circle id="Ellipse_36-4" data-name="Ellipse 36" class="cls-1" cx="17.5" cy="17.5" r="17.5"/>
      </g>
    </g>
    <g id="_006-snapchat" data-name="006-snapchat" transform="translate(8.266 9.186)">
      <g id="Group_20" data-name="Group 20" transform="translate(0 0)">
        <path id="Path_42" data-name="Path 42" d="M17.522,29.577a4.961,4.961,0,0,1-3.4-2.917l-.013-.029a.682.682,0,0,1-.082-.555c.119-.281.621-.44.943-.541.091-.029.175-.056.243-.083.651-.257.977-.585.971-.977a.838.838,0,0,0-.61-.723,1.1,1.1,0,0,0-.416-.08.935.935,0,0,0-.389.08,1.977,1.977,0,0,1-.706.206.676.676,0,0,1-.19-.032c.006-.1.012-.2.019-.3l0-.052a8.932,8.932,0,0,0-.234-3.645,4.845,4.845,0,0,0-4.5-2.9l-.351,0a4.837,4.837,0,0,0-4.491,2.9,8.92,8.92,0,0,0-.233,3.646c.007.12.015.237.021.351a.7.7,0,0,1-.226.033,1.878,1.878,0,0,1-.768-.207,1.006,1.006,0,0,0-1.306.618c-.057.3.063.728.959,1.082.07.027.157.056.265.09.3.1.8.255.922.535a.714.714,0,0,1-.093.578A5.1,5.1,0,0,1,.4,29.567a.482.482,0,0,0-.4.5.617.617,0,0,0,.049.206c.2.462.95.783,2.365,1.007a2.97,2.97,0,0,1,.088.341c.03.137.061.278.1.424a.523.523,0,0,0,.541.4,2.4,2.4,0,0,0,.428-.059,4.548,4.548,0,0,1,.92-.1,4.064,4.064,0,0,1,.659.056,3.139,3.139,0,0,1,1.226.637,3.586,3.586,0,0,0,2.364.792c.03,0,.061,0,.09,0s.086,0,.129,0a4.483,4.483,0,0,0,2.643-.792,3.177,3.177,0,0,1,1.223-.636,4.08,4.08,0,0,1,.66-.056,4.6,4.6,0,0,1,.924.1,2.281,2.281,0,0,0,.444.052.514.514,0,0,0,.521-.39c.042-.144.073-.281.1-.421a3.049,3.049,0,0,1,.088-.338c1.4-.222,2.108-.53,2.305-.991a.609.609,0,0,0,.052-.211A.483.483,0,0,0,17.522,29.577Z" transform="translate(0.002 -17.029)"/>
      </g>
    </g>
  </g>
</svg>
