<svg xmlns="http://www.w3.org/2000/svg" xmlns:xlink="http://www.w3.org/1999/xlink" width="1440" height="316.292" viewBox="0 0 1440 316.292">
  <defs>
    <style>
      .cls-1 {
        fill: none;
      }

      .cls-2 {
        fill: #fe9cbb;
      }

      .cls-3 {
        clip-path: url(#clip-path);
      }

      .cls-4 {
        fill: #1096d0;
      }
    </style>
    <clipPath id="clip-path">
      <rect class="cls-1" width="1423" height="292"/>
    </clipPath>
  </defs>
  <g id="footer-pink" transform="translate(-116.348)">
    <path id="Path_44" data-name="Path 44" class="cls-2" d="M0,0H1440V316.292H0Z" transform="translate(116.348)"/>
    <g id="Repeat_Grid_3" data-name="Repeat Grid 3" class="cls-3" transform="translate(131.348 24.292)">
      <g transform="translate(-30 -178)">
        <circle id="Ellipse_37" data-name="Ellipse 37" class="cls-4" cx="30" cy="30" r="30" transform="translate(30 178)"/>
        <circle id="Ellipse_38" data-name="Ellipse 38" class="cls-4" cx="30" cy="30" r="30" transform="translate(107 287)"/>
        <circle id="Ellipse_39" data-name="Ellipse 39" class="cls-4" cx="30" cy="30" r="30" transform="translate(178 178)"/>
      </g>
      <g transform="translate(271 -178)">
        <circle id="Ellipse_37-2" data-name="Ellipse 37" class="cls-4" cx="30" cy="30" r="30" transform="translate(30 178)"/>
        <circle id="Ellipse_38-2" data-name="Ellipse 38" class="cls-4" cx="30" cy="30" r="30" transform="translate(107 287)"/>
        <circle id="Ellipse_39-2" data-name="Ellipse 39" class="cls-4" cx="30" cy="30" r="30" transform="translate(178 178)"/>
      </g>
      <g transform="translate(572 -178)">
        <circle id="Ellipse_37-3" data-name="Ellipse 37" class="cls-4" cx="30" cy="30" r="30" transform="translate(30 178)"/>
        <circle id="Ellipse_38-3" data-name="Ellipse 38" class="cls-4" cx="30" cy="30" r="30" transform="translate(107 287)"/>
        <circle id="Ellipse_39-3" data-name="Ellipse 39" class="cls-4" cx="30" cy="30" r="30" transform="translate(178 178)"/>
      </g>
      <g transform="translate(873 -178)">
        <circle id="Ellipse_37-4" data-name="Ellipse 37" class="cls-4" cx="30" cy="30" r="30" transform="translate(30 178)"/>
        <circle id="Ellipse_38-4" data-name="Ellipse 38" class="cls-4" cx="30" cy="30" r="30" transform="translate(107 287)"/>
        <circle id="Ellipse_39-4" data-name="Ellipse 39" class="cls-4" cx="30" cy="30" r="30" transform="translate(178 178)"/>
      </g>
      <g transform="translate(1174 -178)">
        <circle id="Ellipse_37-5" data-name="Ellipse 37" class="cls-4" cx="30" cy="30" r="30" transform="translate(30 178)"/>
        <circle id="Ellipse_38-5" data-name="Ellipse 38" class="cls-4" cx="30" cy="30" r="30" transform="translate(107 287)"/>
        <circle id="Ellipse_39-5" data-name="Ellipse 39" class="cls-4" cx="30" cy="30" r="30" transform="translate(178 178)"/>
      </g>
      <g transform="translate(-30 31)">
        <circle id="Ellipse_37-6" data-name="Ellipse 37" class="cls-4" cx="30" cy="30" r="30" transform="translate(30 178)"/>
        <circle id="Ellipse_38-6" data-name="Ellipse 38" class="cls-4" cx="30" cy="30" r="30" transform="translate(107 287)"/>
        <circle id="Ellipse_39-6" data-name="Ellipse 39" class="cls-4" cx="30" cy="30" r="30" transform="translate(178 178)"/>
      </g>
      <g transform="translate(271 31)">
        <circle id="Ellipse_37-7" data-name="Ellipse 37" class="cls-4" cx="30" cy="30" r="30" transform="translate(30 178)"/>
        <circle id="Ellipse_38-7" data-name="Ellipse 38" class="cls-4" cx="30" cy="30" r="30" transform="translate(107 287)"/>
        <circle id="Ellipse_39-7" data-name="Ellipse 39" class="cls-4" cx="30" cy="30" r="30" transform="translate(178 178)"/>
      </g>
      <g transform="translate(572 31)">
        <circle id="Ellipse_37-8" data-name="Ellipse 37" class="cls-4" cx="30" cy="30" r="30" transform="translate(30 178)"/>
        <circle id="Ellipse_38-8" data-name="Ellipse 38" class="cls-4" cx="30" cy="30" r="30" transform="translate(107 287)"/>
        <circle id="Ellipse_39-8" data-name="Ellipse 39" class="cls-4" cx="30" cy="30" r="30" transform="translate(178 178)"/>
      </g>
      <g transform="translate(873 31)">
        <circle id="Ellipse_37-9" data-name="Ellipse 37" class="cls-4" cx="30" cy="30" r="30" transform="translate(30 178)"/>
        <circle id="Ellipse_38-9" data-name="Ellipse 38" class="cls-4" cx="30" cy="30" r="30" transform="translate(107 287)"/>
        <circle id="Ellipse_39-9" data-name="Ellipse 39" class="cls-4" cx="30" cy="30" r="30" transform="translate(178 178)"/>
      </g>
      <g transform="translate(1174 31)">
        <circle id="Ellipse_37-10" data-name="Ellipse 37" class="cls-4" cx="30" cy="30" r="30" transform="translate(30 178)"/>
        <circle id="Ellipse_38-10" data-name="Ellipse 38" class="cls-4" cx="30" cy="30" r="30" transform="translate(107 287)"/>
        <circle id="Ellipse_39-10" data-name="Ellipse 39" class="cls-4" cx="30" cy="30" r="30" transform="translate(178 178)"/>
      </g>
    </g>
  </g>
</svg>
