<svg xmlns="http://www.w3.org/2000/svg" width="44.4" height="44.4" viewBox="0 0 44.4 44.4">
  <defs>
    <style>
      .cls-1 {
        fill: #00e677;
      }
    </style>
  </defs>
  <g id="ins" transform="translate(0 0)">
    <circle id="Ellipse_36" data-name="Ellipse 36" class="cls-1" cx="22.2" cy="22.2" r="22.2" transform="translate(0 0)"/>
    <g id="_002-instagram" data-name="002-instagram" transform="translate(10.32 10.32)">
      <path id="Path_38" data-name="Path 38" d="M24.287,7.026a8.731,8.731,0,0,0-.556-2.9,6.122,6.122,0,0,0-3.5-3.5,8.758,8.758,0,0,0-2.9-.555C16.054.014,15.648,0,12.4,0S8.752.014,7.477.07a8.738,8.738,0,0,0-2.9.555,5.832,5.832,0,0,0-2.12,1.382A5.884,5.884,0,0,0,1.08,4.122a8.754,8.754,0,0,0-.556,2.9C.463,8.3.449,8.707.449,11.951s.014,3.651.07,4.925a8.73,8.73,0,0,0,.556,2.9,6.121,6.121,0,0,0,3.5,3.5,8.759,8.759,0,0,0,2.9.555c1.275.056,1.681.07,4.926.07s3.651-.014,4.926-.07a8.733,8.733,0,0,0,2.9-.555,6.113,6.113,0,0,0,3.5-3.5,8.76,8.76,0,0,0,.556-2.9c.056-1.275.07-1.681.07-4.925S24.343,8.3,24.287,7.026Zm-2.153,9.757A6.549,6.549,0,0,1,21.723,19a3.965,3.965,0,0,1-2.269,2.269,6.576,6.576,0,0,1-2.218.411c-1.261.056-1.639.07-4.828.07s-3.572-.014-4.828-.07a6.549,6.549,0,0,1-2.218-.411,3.678,3.678,0,0,1-1.373-.892A3.715,3.715,0,0,1,3.1,19.006a6.574,6.574,0,0,1-.411-2.218c-.056-1.261-.07-1.639-.07-4.827s.014-3.571.07-4.827A6.546,6.546,0,0,1,3.1,4.916a3.632,3.632,0,0,1,.9-1.373,3.711,3.711,0,0,1,1.373-.892,6.58,6.58,0,0,1,2.218-.411c1.261-.056,1.639-.07,4.828-.07s3.572.014,4.828.07a6.553,6.553,0,0,1,2.218.411,3.675,3.675,0,0,1,1.373.892,3.715,3.715,0,0,1,.892,1.373,6.576,6.576,0,0,1,.411,2.218c.056,1.261.07,1.639.07,4.827S22.19,15.523,22.134,16.783Zm0,0" transform="translate(-0.449 0)"/>
      <path id="Path_39" data-name="Path 39" d="M131.454,124.5a6.5,6.5,0,1,0,6.5,6.5A6.5,6.5,0,0,0,131.454,124.5Zm0,10.719A4.218,4.218,0,1,1,135.673,131,4.219,4.219,0,0,1,131.454,135.219Zm0,0" transform="translate(-119.5 -119.051)"/>
      <path id="Path_40" data-name="Path 40" d="M365.673,90.213a1.612,1.612,0,1,1-1.612-1.612A1.612,1.612,0,0,1,365.673,90.213Zm0,0" transform="translate(-345.832 -84.535)"/>
    </g>
  </g>
</svg>
