<svg id="ins" xmlns="http://www.w3.org/2000/svg" width="35" height="35" viewBox="0 0 35 35">
  <defs>
    <style>
      .cls-1 {
        fill: #fff;
      }
    </style>
  </defs>
  <g id="youtube">
    <g id="Group_21" data-name="Group 21" transform="translate(0)">
      <circle id="Ellipse_36" data-name="Ellipse 36" cx="17.5" cy="17.5" r="17.5"/>
    </g>
  </g>
  <g id="_002-instagram" data-name="002-instagram" transform="translate(8.135 8.135)">
    <path id="Path_38" data-name="Path 38" class="cls-1" d="M19.314,5.865a10.883,10.883,0,0,0-1-3c-.239-.633-.518-.529-1-1s-.374-.765-1-1a10.923,10.923,0,0,0-3-1c-1.009-.048-.442,0-3,0s-3-.044-4,0a10.886,10.886,0,0,0-3,1c-.633.239-.529.518-1,1s-.764.374-1,1a10.924,10.924,0,0,0-1,3c-.048,1.008,0,1.442,0,4s-.044,2,0,3a10.883,10.883,0,0,0,1,3c.239.633.521.529,1,1s.374.765,1,1a10.923,10.923,0,0,0,3,1c1,.044,1.442,0,4,0s2,.044,3,0a10.882,10.882,0,0,0,3-1,2.634,2.634,0,0,0,2-2,10.929,10.929,0,0,0,1-3c.044-1,0-.442,0-3S19.358,6.87,19.314,5.865Zm-2,7a14.385,14.385,0,0,1,0,2,3.874,3.874,0,0,1-2,2,14.373,14.373,0,0,1-2,0c-.994.044-.486,0-3,0s-3.01.044-4,0a14.364,14.364,0,0,1-2,0c-.408-.151-.7-.687-1-1s-.849-.592-1-1a14.371,14.371,0,0,1,0-2c-.044-.994,0-.486,0-3s-.044-3.01,0-4a14.361,14.361,0,0,1,0-2c.151-.409.683-.7,1-1s.591-.849,1-1a14.4,14.4,0,0,1,2,0c.994-.044,1.486,0,4,0s2.01-.044,3,0a14.387,14.387,0,0,1,2,0c.408.151.7.687,1,1s.849.591,1,1a14.394,14.394,0,0,1,0,2c.044.994,0,1.486,0,4S17.358,11.872,17.314,12.865Zm0,0" transform="translate(-0.449 0)"/>
    <path id="Path_39" data-name="Path 39" class="cls-1" d="M130.519,124.069c-2.831,0-6,3.17-6,6s3.169,5,6,5a4.914,4.914,0,0,0,5-5C135.519,127.24,133.35,124.069,130.519,124.069Zm0,9c-1.836,0-4-1.164-4-3a4.6,4.6,0,0,1,4-4c1.837,0,3,2.164,3,4A2.8,2.8,0,0,1,130.519,133.069Zm0,0" transform="translate(-120.654 -120.204)"/>
    <path id="Path_40" data-name="Path 40" class="cls-1" d="M365.215,90.261c0,.7-.3,1-1,1s-2-.3-2-1a2.873,2.873,0,0,1,2-2C364.917,88.261,365.215,89.559,365.215,90.261Zm0,0" transform="translate(-349.35 -85.396)"/>
  </g>
</svg>
