<svg xmlns="http://www.w3.org/2000/svg" xmlns:xlink="http://www.w3.org/1999/xlink" width="197" height="197" viewBox="0 0 197 197">
  <defs>
    <style>
      .cls-1 {
        fill: #fff;
      }

      .cls-2 {
        fill: #fddc01;
      }

      .cls-3 {
        clip-path: url(#clip-path);
      }

      .cls-4 {
        fill: none;
        stroke-linecap: square;
      }

      .cls-5, .cls-6 {
        stroke: none;
      }

      .cls-6 {
        fill: #000;
      }
    </style>
    <clipPath id="clip-path">
      <rect id="Rectangle_8" data-name="Rectangle 8" class="cls-1" width="145" height="65" transform="translate(-0.421 0.388)"/>
    </clipPath>
  </defs>
  <g id="ip-hover" transform="translate(-604.13 -4073.156)">
    <circle id="_2_33c240bc-4f8d-4662-a0a2-65a81b769785_1200x" data-name="2_33c240bc-4f8d-4662-a0a2-65a81b769785_1200x" class="cls-2" cx="98.5" cy="98.5" r="98.5" transform="translate(604.13 4073.156)"/>
    <g id="Group_16" data-name="Group 16" transform="translate(0 -3)">
      <g id="Mask_Group_3" data-name="Mask Group 3" class="cls-3" transform="translate(631.551 4179.768)">
        <g id="Path_36" data-name="Path 36" class="cls-4" transform="translate(4.785 -61.914)">
          <path class="cls-5" d="M67.794.3a73.439,73.439,0,0,1,44,14c14.234,10.458,24,26.446,24,44,0,31.975-30.552,57-68,57s-68-25.025-68-57S30.346.3,67.794.3Z"/>
          <path class="cls-6" d="M 67.79400634765625 5.30224609375 C 59.2222900390625 5.30224609375 50.90413665771484 6.738265991210938 43.07059478759766 9.570396423339844 C 39.31939697265625 10.92661285400391 35.70224761962891 12.60341644287109 32.31965637207031 14.55422210693359 C 28.981201171875 16.47959136962891 25.84391784667969 18.68743896484375 22.99494171142578 21.11648559570312 C 20.15994262695312 23.53359222412109 17.58869934082031 26.18828582763672 15.35263824462891 29.00679016113281 C 13.1083984375 31.83561706542969 11.18296051025391 34.85353088378906 9.629852294921875 37.97669982910156 C 6.4210205078125 44.42931365966797 4.79400634765625 51.26782989501953 4.79400634765625 58.30224609375 C 4.79400634765625 72.19033813476562 11.24176788330078 85.20535278320312 22.94954681396484 94.94976806640625 C 25.7921142578125 97.31563568115234 28.92676544189453 99.46441650390625 32.26648712158203 101.3364181518555 C 35.64566040039062 103.2305526733398 39.26448822021484 104.8578796386719 43.02239990234375 106.1731796264648 C 50.85028839111328 108.9130249023438 59.18466186523438 110.30224609375 67.79400634765625 110.30224609375 C 76.40335083007812 110.30224609375 84.73772430419922 108.9130249023438 92.56561279296875 106.1731796264648 C 96.32353210449219 104.8578796386719 99.94235229492188 103.2305526733398 103.321533203125 101.3364181518555 C 106.661247253418 99.46441650390625 109.7958984375 97.31563568115234 112.6384582519531 94.94976806640625 C 124.3462448120117 85.20535278320312 130.7940063476562 72.19033813476562 130.7940063476562 58.30224609375 C 130.7940063476562 54.46200561523438 130.2661743164062 50.59889984130859 129.2252044677734 46.82020568847656 C 128.2157745361328 43.156005859375 126.7183303833008 39.547119140625 124.7745056152344 36.09381103515625 C 120.9756164550781 29.34485626220703 115.4633102416992 23.20276641845703 108.8332214355469 18.33135223388672 C 103.148811340332 14.15420532226562 96.83070373535156 10.92328643798828 90.05437469482422 8.728401184082031 C 83.03561401367188 6.454963684082031 75.54615783691406 5.30224609375 67.79400634765625 5.30224609375 M 67.79400634765625 0.30224609375 C 84.68309020996094 0.30224609375 99.70783233642578 5.420768737792969 111.7940063476562 14.30224609375 C 126.0277862548828 24.76042175292969 135.7940063476562 40.74803161621094 135.7940063476562 58.30224609375 C 135.7940063476562 90.27713775634766 105.2420959472656 115.30224609375 67.79400634765625 115.30224609375 C 30.34591674804688 115.30224609375 -0.20599365234375 90.27713775634766 -0.20599365234375 58.30224609375 C -0.20599365234375 26.32735443115234 30.34591674804688 0.30224609375 67.79400634765625 0.30224609375 Z"/>
        </g>
      </g>
      <ellipse id="Ellipse_32" data-name="Ellipse 32" cx="6.781" cy="2.086" rx="6.781" ry="2.086" transform="translate(631.868 4177.851) rotate(-13)"/>
      <ellipse id="Ellipse_33" data-name="Ellipse 33" cx="6.781" cy="2.086" rx="6.781" ry="2.086" transform="translate(775.477 4181.916) rotate(-167)"/>
    </g>
  </g>
</svg>
