<svg xmlns="http://www.w3.org/2000/svg" width="299.939" height="300.374" viewBox="0 0 299.939 300.374">
  <defs>
    <style>
      .cls-1 {
        fill: none;
        stroke: #fff036;
        stroke-width: 7px;
      }
    </style>
  </defs>
  <path id="Path_77" data-name="Path 77" class="cls-1" d="M12756.313,458.682c-8.657,8.57-15.638,15.569-17.67,33.182.383,27.19,24.813,29.845,24.813,29.845s-29.6,55.161,6.391,66.014c7,1.95,15.08,2.572,31.957,0,3.271,14.972,8.289,23.353,11.384,26.731,23.138,25.254,60.626-2.672,60.626-2.672s29.7,38.414,61.43,31.909c19.024-3.9,35.207-5.771,53.617-45.45,13.492-2.766,29.4-18.419,31.483-37.106,2.218-19.914-10.056-42.872-10.056-42.872s34.22-28.183,15.73-79.309-72.411-44.061-72.411-44.061a59.732,59.732,0,0,0-23.012-28.914c-12.112-7.849-23.946-15.777-46.9-14.818-35.895,0-57.912,35.491-57.912,35.491s-35.962-11.186-62.324,8.241S12756.313,458.682,12756.313,458.682Z" transform="translate(-12735.14 -347.586)"/>
</svg>
