<svg width="292" height="60" viewBox="0 0 292 60" fill="none" xmlns="http://www.w3.org/2000/svg">
<path d="M16.5392 33.6055V23.4141C18.8687 23.4141 20.0335 22.5211 20.0335 20.7352C20.0335 19.1046 19.1405 18.2893 17.3546 18.2893C15.5686 18.2893 14.6757 19.3958 14.6757 21.6088V47H3.08655V22.8317C3.08655 19.454 3.63009 16.6975 4.71718 14.5621C5.80427 12.4268 7.55137 10.6797 9.95849 9.3208C12.4044 7.92312 15.0445 7.22428 17.8787 7.22428C21.8 7.22428 25.1001 8.56372 27.7789 11.2426C30.4967 13.8827 31.8555 17.1634 31.8555 21.0846C31.8555 25.0059 30.6714 28.073 28.3031 30.286C25.9736 32.499 22.6347 33.6055 18.2864 33.6055H16.5392ZM55.7372 7.22428C59.3867 7.22428 62.7838 8.13665 65.9286 9.9614C69.0734 11.7473 71.5581 14.2127 73.3829 17.3575C75.2076 20.4634 76.12 23.8218 76.12 27.4324C76.12 31.0431 75.2076 34.4209 73.3829 37.5656C71.5581 40.6716 69.0734 43.137 65.9286 44.9617C62.7838 46.7476 59.3867 47.6406 55.7372 47.6406C52.0876 47.6406 48.6905 46.7476 45.5457 44.9617C42.4009 43.137 39.9162 40.6716 38.0914 37.5656C36.2667 34.4209 35.3543 31.0431 35.3543 27.4324C35.3543 23.8218 36.2667 20.4634 38.0914 17.3575C39.9162 14.2127 42.4009 11.7473 45.5457 9.9614C48.6905 8.13665 52.0876 7.22428 55.7372 7.22428ZM55.6789 36.3427C58.1637 36.3427 60.2796 35.4691 62.0267 33.722C63.7738 31.9749 64.6474 29.8784 64.6474 27.4324C64.6474 24.9865 63.7544 22.89 61.9685 21.1429C60.2214 19.3569 58.1249 18.464 55.6789 18.464C53.233 18.464 51.117 19.3569 49.3311 21.1429C47.584 22.89 46.7104 24.9865 46.7104 27.4324C46.7104 29.8784 47.584 31.9749 49.3311 33.722C51.0782 35.4691 53.1941 36.3427 55.6789 36.3427ZM94.1693 33.6055V23.4141C96.4988 23.4141 97.6635 22.5211 97.6635 20.7352C97.6635 19.1046 96.7706 18.2893 94.9846 18.2893C93.1987 18.2893 92.3058 19.3958 92.3058 21.6088V47H80.7166V22.8317C80.7166 19.454 81.2602 16.6975 82.3473 14.5621C83.4343 12.4268 85.1815 10.6797 87.5886 9.3208C90.0345 7.92312 92.6746 7.22428 95.5088 7.22428C99.4301 7.22428 102.73 8.56372 105.409 11.2426C108.127 13.8827 109.486 17.1634 109.486 21.0846C109.486 25.0059 108.301 28.073 105.933 30.286C103.604 32.499 100.265 33.6055 95.9164 33.6055H94.1693ZM114.499 47V18.9881C114.499 15.5327 115.547 12.7179 117.643 10.5438C119.779 8.33077 122.516 7.22428 125.855 7.22428C129.854 7.22428 132.921 9.04903 135.056 12.6985C136.221 10.7961 137.56 9.41786 139.074 8.56372C140.627 7.67076 142.53 7.22428 144.782 7.22428C148.276 7.22428 150.955 8.33077 152.818 10.5438C154.682 12.7179 155.614 15.8821 155.614 20.0364V47H144.025V21.7252C144.025 20.5993 143.928 19.8034 143.733 19.3375C143.539 18.8716 143.151 18.6387 142.569 18.6387C141.404 18.6387 140.822 19.6093 140.822 21.5505V47H129.291V21.7252C129.291 20.6381 129.194 19.8617 128.999 19.3958C128.805 18.891 128.398 18.6387 127.777 18.6387C126.651 18.6387 126.088 19.6675 126.088 21.7252V47H114.499ZM176.609 27.5489V37.7404H173.348V47H161.759V22.3076C161.759 17.5322 163.06 13.8244 165.661 11.1844C168.262 8.54431 171.931 7.22428 176.668 7.22428C181.21 7.22428 184.568 8.42784 186.743 10.835C188.917 13.2421 190.004 16.9304 190.004 21.8999V47H178.473V22.657C178.473 21.1817 178.279 20.1528 177.891 19.5705C177.541 18.9493 176.92 18.6387 176.027 18.6387C174.241 18.6387 173.348 19.9781 173.348 22.657V27.5489H176.609ZM208.57 18.6387V47H197.039V8.15606H211.831C216.373 8.15606 219.945 9.35962 222.546 11.7667C225.186 14.135 226.507 17.241 226.507 21.0846C226.507 25.0447 224.779 28.3448 221.323 30.9849L228.021 47H215.849L210.258 34.4791V24.5206H211.19C213.636 24.5206 214.859 23.4723 214.859 21.3758C214.859 19.5511 213.442 18.6387 210.608 18.6387H208.57ZM248.733 19.3375V47H237.202V19.3375H228.35V8.15606H257.527V19.3375H248.733Z" fill="#292424"/>
<path d="M278.924 20.7642V11.8475H282.607C283.275 11.8475 283.851 11.968 284.336 12.2089C284.823 12.4469 285.199 12.7894 285.463 13.2364C285.727 13.6805 285.86 14.2073 285.86 14.8168C285.86 15.4351 285.725 15.9604 285.455 16.3929C285.185 16.8225 284.802 17.1505 284.305 17.3769C283.809 17.6004 283.221 17.7121 282.542 17.7121H280.213V16.0141H282.141C282.466 16.0141 282.738 15.972 282.956 15.8879C283.176 15.8008 283.343 15.6702 283.456 15.496C283.569 15.319 283.626 15.0926 283.626 14.8168C283.626 14.5411 283.569 14.3132 283.456 14.1333C283.343 13.9504 283.176 13.814 282.956 13.724C282.735 13.6311 282.464 13.5847 282.141 13.5847H281.079V20.7642H278.924ZM283.944 16.689L286.164 20.7642H283.813L281.636 16.689H283.944Z" fill="#292424"/>
<path d="M282.195 25.0091C286.851 25.0091 290.624 21.2353 290.624 16.5801C290.624 11.9249 286.851 8.15112 282.195 8.15112C277.54 8.15112 273.766 11.9249 273.766 16.5801C273.766 21.2353 277.54 25.0091 282.195 25.0091Z" stroke="#0F0F0F" stroke-width="1.53255"/>
</svg>
