<svg xmlns="http://www.w3.org/2000/svg" xmlns:xlink="http://www.w3.org/1999/xlink" width="26.811" height="34.303" viewBox="0 0 26.811 34.303">
  <defs>
    <style>
      .cls-1, .cls-5 {
        fill: #fff;
      }

      .cls-1 {
        stroke: #707070;
      }

      .cls-1, .cls-2, .cls-3 {
        stroke-width: 1.35px;
      }

      .cls-2, .cls-3, .cls-8 {
        fill: none;
      }

      .cls-2 {
        stroke: #000;
      }

      .cls-3 {
        stroke: #020202;
      }

      .cls-4 {
        clip-path: url(#clip-path);
      }

      .cls-6 {
        clip-path: url(#clip-path-2);
      }

      .cls-7, .cls-9 {
        stroke: none;
      }

      .cls-9 {
        fill: #000;
      }
    </style>
    <clipPath id="clip-path">
      <rect id="Rectangle_6" data-name="Rectangle 6" class="cls-1" width="17" height="7" transform="translate(1228 21)"/>
    </clipPath>
    <clipPath id="clip-path-2">
      <rect id="Rectangle_7" data-name="Rectangle 7" class="cls-1" width="16" height="9" transform="translate(1229 29)"/>
    </clipPath>
  </defs>
  <g id="shop-bag" transform="translate(-1224.309 -22)">
    <path id="Path_34" data-name="Path 34" class="cls-2" d="M1180.5,37.507h20.366l2.5,21.121h-25.294Z" transform="translate(47 -3)"/>
    <g id="Ellipse_29" data-name="Ellipse 29" class="cls-3" transform="translate(1231 37)">
      <circle class="cls-7" cx="1" cy="1" r="1"/>
      <circle class="cls-8" cx="1" cy="1" r="0.325"/>
    </g>
    <g id="Ellipse_30" data-name="Ellipse 30" class="cls-3" transform="translate(1242 37)">
      <circle class="cls-7" cx="1" cy="1" r="1"/>
      <circle class="cls-8" cx="1" cy="1" r="0.325"/>
    </g>
    <g id="Mask_Group_1" data-name="Mask Group 1" class="cls-4" transform="translate(0 1)">
      <g id="Path_35" data-name="Path 35" class="cls-5" transform="matrix(1, 0.017, -0.017, 1, 1231.582, 23.434)">
        <path class="cls-7" d="M 5.999428272247314 8.786745071411133 L 5.99940824508667 8.786745071411133 C 3.063538312911987 8.786725044250488 0.6750282049179077 6.967265129089355 0.6750181913375854 4.730854988098145 C 0.6750181913375854 3.678375005722046 1.20779824256897 2.678615093231201 2.175228118896484 1.91574501991272 C 3.189858198165894 1.115655064582825 4.547958374023438 0.6750250458717346 5.999348163604736 0.6750250458717346 C 8.935237884521484 0.6750450134277344 11.32374858856201 2.494504928588867 11.32375812530518 4.730915069580078 C 11.32375812530518 5.783394813537598 10.79097843170166 6.783154964447021 9.823548316955566 7.546024799346924 C 8.808917999267578 8.346115112304688 7.450818061828613 8.786745071411133 5.999428272247314 8.786745071411133 Z"/>
        <path class="cls-9" d="M 5.999338150024414 1.350025177001953 L 5.999348163604736 1.350025177001953 C 4.698938369750977 1.350025177001953 3.48926830291748 1.73916482925415 2.593188285827637 2.445775032043457 C 1.791518211364746 3.077935218811035 1.350018501281738 3.88945484161377 1.350018501281738 4.730844974517822 C 1.350018501281738 5.572335243225098 1.791498184204102 6.383885383605957 2.593128204345703 7.016025066375732 C 3.489168167114258 7.722604751586914 4.698888301849365 8.111735343933105 5.999428272247314 8.11174488067627 C 7.299838066101074 8.11174488067627 8.50950813293457 7.722604751586914 9.405588150024414 7.015995025634766 C 10.2072582244873 6.383834838867188 10.64875793457031 5.572315216064453 10.64875793457031 4.7309250831604 C 10.64874839782715 3.889444828033447 10.20726776123047 3.077885150909424 9.405637741088867 2.44574499130249 C 8.509597778320312 1.73916482925415 7.299888134002686 1.350034713745117 5.999338150024414 1.350025177001953 M 5.999344825744629 2.47955322265625e-05 C 5.999547004699707 2.47955322265625e-05 5.999166011810303 2.47955322265625e-05 5.999368190765381 2.47955322265625e-05 C 9.312727928161621 4.482269287109375e-05 11.99873828887939 2.11813497543335 11.99875831604004 4.730915069580078 C 11.9987678527832 7.343695163726807 9.311358451843262 9.46175479888916 5.99940824508667 9.461745262145996 C 2.68604850769043 9.461725234985352 2.86102294921875e-05 7.343635082244873 1.811981201171875e-05 4.730854988098145 C 8.58306884765625e-06 2.118234634399414 2.686263084411621 2.47955322265625e-05 5.999344825744629 2.47955322265625e-05 Z"/>
      </g>
    </g>
    <g id="Mask_Group_2" data-name="Mask Group 2" class="cls-6">
      <line id="Line_8" data-name="Line 8" class="cls-2" y1="10" transform="translate(1232 28)"/>
      <line id="Line_9" data-name="Line 9" class="cls-2" y1="10" transform="translate(1243 28)"/>
    </g>
  </g>
</svg>
