<svg xmlns="http://www.w3.org/2000/svg" width="35" height="35" viewBox="0 0 35 35">
  <defs>
    <style>
      .cls-1 {
        fill: #fff;
      }
    </style>
  </defs>
  <g id="snapchat" transform="translate(-0.328)">
    <g id="youtube">
      <g id="Group_21" data-name="Group 21" transform="translate(0)">
        <circle id="Ellipse_36" data-name="Ellipse 36" cx="17.5" cy="17.5" r="17.5" transform="translate(0.328)"/>
      </g>
    </g>
    <g id="_006-snapchat" data-name="006-snapchat" transform="translate(8.59 9.186)">
      <g id="Group_20" data-name="Group 20" transform="translate(0 0)">
        <path id="Path_42" data-name="Path 42" class="cls-1" d="M17.737,29.843a6.708,6.708,0,0,1-4-3h0a1.957,1.957,0,0,1,0-1c.119-.281.678.1,1,0,.091-.029-.068.027,0,0,.651-.257,1.007-.609,1-1-.006-.31.361-.872,0-1a6.419,6.419,0,0,0-1,0c-.1,0,.141-.066,0,0-.276.129-.815-.008-1,0-.082,0,.045.015,0,0,.006-.1-.006.1,0,0h0c.077-1.219.406-3.091,0-4-1.2-2.69-4.248-3-5-3h0a4.455,4.455,0,0,0-4,3,10.509,10.509,0,0,0-1,4c.007.12-.007-.114,0,0-.051.018.1,0,0,0a2.443,2.443,0,0,1-1,0c-.425-.2-.9.449-1,1-.057.3.1.646,1,1,.07.027-.108-.034,0,0,.3.1.881-.28,1,0a1.844,1.844,0,0,1,0,1c-.044.1-.65,2.613-3,3-.244.04-1.014-.246-1,0,0,.068-.029-.069,0,0,.2.462,1.584.775,3,1,.031.08-.021.9,0,1,.03.137-.043-.146,0,0s-.37,1,0,1c.125,0,.843.03,1,0,.226-.045.616-1,1-1,.213,0-.224-.037,0,0a8.109,8.109,0,0,1,2,1c.634.449.847,1,2,1,.03,0-.03,0,0,0s-.044,0,0,0a5.826,5.826,0,0,0,3-1c.411-.291.576-.929,1-1a9,9,0,0,1,1,0c.368,0,.738.949,1,1,.177.035-.128,0,0,0,.258,0,.927-.752,1-1,.042-.144-.03.14,0,0,.016-.074-.033-.914,0-1,1.4-.222,1.8-.539,2-1,.03-.066,0,.075,0,0C17.75,29.6,17.981,29.883,17.737,29.843Z" transform="translate(0.002 -17.029)"/>
      </g>
    </g>
  </g>
</svg>
