<svg xmlns="http://www.w3.org/2000/svg" width="34.643" height="36.849" viewBox="0 0 34.643 36.849">
  <defs>
    <style>
      .cls-1 {
        fill: #fff;
        stroke: #000;
        stroke-width: 2px;
      }
    </style>
  </defs>
  <path id="Star_1" data-name="Star 1" class="cls-1" d="M82.793,69.43a18.987,18.987,0,0,0,8.918,3.081,18.986,18.986,0,0,0-8.919,3.081,17.855,17.855,0,0,0-5.941,7,25.254,25.254,0,0,0-2.185,6.974c-.075.456-.132.875-.175,1.25-.043-.374-.1-.794-.175-1.25A25.254,25.254,0,0,0,72.131,82.6a17.855,17.855,0,0,0-5.941-7,18.989,18.989,0,0,0-8.919-3.081,18.989,18.989,0,0,0,8.919-3.081,17.858,17.858,0,0,0,5.941-7,25.257,25.257,0,0,0,2.185-6.974c.075-.456.132-.876.175-1.25.043.375.1.794.175,1.25a25.261,25.261,0,0,0,2.185,6.974A17.86,17.86,0,0,0,82.793,69.43Z" transform="translate(-57.169 -54.087)"/>
</svg>
