<svg xmlns="http://www.w3.org/2000/svg" width="64.014" height="68.077" viewBox="0 0 64.014 68.077">
  <defs>
    <style>
      .cls-1 {
        fill: #fff;
        stroke: #000;
        stroke-width: 2px;
      }
    </style>
  </defs>
  <path id="Star_1" data-name="Star 1" class="cls-1" d="M104.558,82.417a35.179,35.179,0,0,0,16.523,5.709,35.177,35.177,0,0,0-16.526,5.709,33.082,33.082,0,0,0-11.008,12.976A46.791,46.791,0,0,0,89.5,119.733c-.139.845-.244,1.622-.324,2.316-.08-.694-.186-1.471-.325-2.316A46.792,46.792,0,0,0,84.8,106.812,33.082,33.082,0,0,0,73.8,93.836a35.184,35.184,0,0,0-16.525-5.709A35.183,35.183,0,0,0,73.8,82.417,33.087,33.087,0,0,0,84.8,69.441a46.8,46.8,0,0,0,4.048-12.922c.139-.845.244-1.623.325-2.317.08.694.186,1.472.325,2.317a46.8,46.8,0,0,0,4.049,12.922A33.09,33.09,0,0,0,104.558,82.417Z" transform="translate(-57.169 -54.087)"/>
</svg>
