<svg xmlns="http://www.w3.org/2000/svg" width="41.586" height="44.23" viewBox="0 0 41.586 44.23">
  <defs>
    <style>
      .cls-1 {
        fill: #fff;
        stroke: #000;
        stroke-width: 2px;
      }
    </style>
  </defs>
  <path id="Star_1" data-name="Star 1" class="cls-1" d="M87.937,72.5a22.814,22.814,0,0,0,10.716,3.7,22.813,22.813,0,0,0-10.717,3.7A21.454,21.454,0,0,0,80.8,88.32a30.345,30.345,0,0,0-2.625,8.38c-.09.548-.158,1.052-.21,1.5-.052-.45-.12-.954-.21-1.5a30.345,30.345,0,0,0-2.625-8.38A21.454,21.454,0,0,0,67.987,79.9a22.817,22.817,0,0,0-10.716-3.7,22.817,22.817,0,0,0,10.716-3.7,21.457,21.457,0,0,0,7.139-8.415,30.349,30.349,0,0,0,2.625-8.38c.09-.548.158-1.052.21-1.5.052.45.12.954.21,1.5a30.353,30.353,0,0,0,2.626,8.38A21.46,21.46,0,0,0,87.937,72.5Z" transform="translate(-57.169 -54.087)"/>
</svg>
