<svg xmlns="http://www.w3.org/2000/svg" width="14.884" height="17.99" viewBox="0 0 14.884 17.99">
  <path id="icons8-trash-can-50" d="M12.788,2a1.214,1.214,0,0,0-1.24,1.173v.782H8.3a.4.4,0,0,0-.13,0H7.413a.392.392,0,1,0,0,.782h.413V18.817a1.214,1.214,0,0,0,1.24,1.173h10.75a1.214,1.214,0,0,0,1.24-1.173V4.738h.413a.392.392,0,1,0,0-.782h-.757a.437.437,0,0,0-.135,0H17.336V3.173A1.214,1.214,0,0,0,16.1,2Zm0,.782H16.1a.4.4,0,0,1,.413.391v.782H12.375V3.173A.4.4,0,0,1,12.788,2.782ZM8.654,4.738h3.238a.437.437,0,0,0,.135,0h4.827a.437.437,0,0,0,.135,0H20.23V18.817a.4.4,0,0,1-.413.391H9.067a.4.4,0,0,1-.413-.391Zm3.3,1.95a.4.4,0,0,0-.407.4v9.777a.414.414,0,0,0,.827,0V7.084a.38.38,0,0,0-.121-.282A.426.426,0,0,0,11.955,6.688Zm2.481,0a.4.4,0,0,0-.407.4v9.777a.414.414,0,0,0,.827,0V7.084a.38.38,0,0,0-.121-.282A.426.426,0,0,0,14.436,6.688Zm2.481,0a.4.4,0,0,0-.407.4v9.777a.414.414,0,0,0,.827,0V7.084a.38.38,0,0,0-.121-.282A.426.426,0,0,0,16.916,6.688Z" transform="translate(-7 -2)"/>
</svg>
