<svg xmlns="http://www.w3.org/2000/svg" width="35" height="35" viewBox="0 0 35 35">
  <defs>
    <style>
      .cls-1 {
        fill: #fff;
      }
    </style>
  </defs>
  <g id="twitter" transform="translate(0 0.384)">
    <g id="youtube">
      <g id="Group_21" data-name="Group 21">
        <circle id="Ellipse_36" data-name="Ellipse 36" cx="17.5" cy="17.5" r="17.5" transform="translate(0 -0.384)"/>
      </g>
    </g>
    <g id="_005-twitter" data-name="005-twitter" transform="translate(8.964 10.097)">
      <g id="Group_19" data-name="Group 19" transform="translate(0 0)">
        <path id="Path_41" data-name="Path 41" class="cls-1" d="M18.036,49.519c-.683.3-1.242.9-2,1a4.235,4.235,0,0,0,2-2,11.553,11.553,0,0,1-3,1c-.691-.735-.926-2-2-2a4.18,4.18,0,0,0-4,4,5.39,5.39,0,0,0,0,1,11.24,11.24,0,0,1-8-4c-.325.563,0,1.306,0,2,0,1.3,0,2.331,1,3-.6-.011-.5.276-1,0h0c0,1.829,1.289,2.65,3,3-.306.084-.654,1-1,1a6.613,6.613,0,0,1-1,0c.488,1.49,2.355,1.964,4,2a8.931,8.931,0,0,1-5,2,8.81,8.81,0,0,1-1,0c1.667,1.075,3.87,1,6,1,6.925,0,10-5.028,10-10,0-.166.008-.841,0-1A8.139,8.139,0,0,0,18.036,49.519Z" transform="translate(0 -48)"/>
      </g>
    </g>
  </g>
</svg>
