<svg xmlns="http://www.w3.org/2000/svg" width="35" height="35" viewBox="0 0 35 35">
  <defs>
    <style>
      .cls-1 {
        fill: #fff;
      }
    </style>
  </defs>
  <g id="twitter" transform="translate(-1077 -598)">
    <circle id="Ellipse_36" data-name="Ellipse 36" cx="17.5" cy="17.5" r="17.5" transform="translate(1077 598)"/>
    <g id="_005-twitter" data-name="005-twitter" transform="translate(1085.964 608.481)">
      <g id="Group_19" data-name="Group 19" transform="translate(0 0)">
        <path id="Path_41" data-name="Path 41" class="cls-1" d="M18.356,49.766a7.846,7.846,0,0,1-2.168.594,3.742,3.742,0,0,0,1.655-2.08,7.52,7.52,0,0,1-2.386.911,3.763,3.763,0,0,0-6.509,2.573,3.875,3.875,0,0,0,.087.858,10.651,10.651,0,0,1-7.756-3.936,3.764,3.764,0,0,0,1.156,5.029,3.716,3.716,0,0,1-1.7-.463v.041a3.78,3.78,0,0,0,3.015,3.7,3.756,3.756,0,0,1-.987.124,3.327,3.327,0,0,1-.712-.064,3.8,3.8,0,0,0,3.516,2.621A7.561,7.561,0,0,1,.9,61.277a7.048,7.048,0,0,1-.9-.052,10.594,10.594,0,0,0,5.773,1.689A10.637,10.637,0,0,0,16.483,52.206c0-.166-.006-.327-.014-.486A7.507,7.507,0,0,0,18.356,49.766Z" transform="translate(0 -48)"/>
      </g>
    </g>
  </g>
</svg>
