<svg id="ins" xmlns="http://www.w3.org/2000/svg" width="35" height="35" viewBox="0 0 35 35">
  <defs>
    <style>
      .cls-1 {
        fill: #fff;
      }
    </style>
  </defs>
  <g id="youtube" transform="translate(0)">
    <g id="Group_21" data-name="Group 21">
      <circle id="Ellipse_36" data-name="Ellipse 36" class="cls-1" cx="17.5" cy="17.5" r="17.5"/>
    </g>
  </g>
  <g id="_002-instagram" data-name="002-instagram" transform="translate(8.135 8.135)">
    <path id="Path_38" data-name="Path 38" d="M19.24,5.539A6.883,6.883,0,0,0,18.8,3.253,4.826,4.826,0,0,0,16.045.5,6.9,6.9,0,0,0,13.759.059C12.751.011,12.43,0,9.872,0S6.994.011,5.989.055A6.888,6.888,0,0,0,3.7.493,4.6,4.6,0,0,0,2.032,1.582,4.638,4.638,0,0,0,.946,3.25,6.9,6.9,0,0,0,.508,5.535C.46,6.543.449,6.863.449,9.421S.46,12.3.5,13.3a6.882,6.882,0,0,0,.438,2.285A4.825,4.825,0,0,0,3.7,18.346a6.9,6.9,0,0,0,2.286.438c1,.044,1.325.055,3.883.055s2.878-.011,3.883-.055a6.885,6.885,0,0,0,2.286-.438,4.819,4.819,0,0,0,2.757-2.756,6.906,6.906,0,0,0,.438-2.285c.044-1,.055-1.325.055-3.883S19.284,6.543,19.24,5.539Zm-1.7,7.692a5.163,5.163,0,0,1-.324,1.748,3.125,3.125,0,0,1-1.789,1.789,5.184,5.184,0,0,1-1.748.324c-.994.044-1.292.055-3.806.055s-2.816-.011-3.806-.055a5.163,5.163,0,0,1-1.748-.324,2.9,2.9,0,0,1-1.082-.7,2.929,2.929,0,0,1-.7-1.082,5.182,5.182,0,0,1-.324-1.748c-.044-.994-.055-1.292-.055-3.805s.011-2.815.055-3.805a5.16,5.16,0,0,1,.324-1.748,2.863,2.863,0,0,1,.707-1.082,2.925,2.925,0,0,1,1.082-.7,5.187,5.187,0,0,1,1.748-.324c.994-.044,1.292-.055,3.806-.055s2.816.011,3.806.055a5.165,5.165,0,0,1,1.748.324,2.9,2.9,0,0,1,1.082.7,2.928,2.928,0,0,1,.7,1.082,5.184,5.184,0,0,1,.324,1.748c.044.994.055,1.292.055,3.805S17.587,12.237,17.543,13.23Zm0,0" transform="translate(-0.449 0)"/>
    <path id="Path_39" data-name="Path 39" d="M130.077,124.5a5.125,5.125,0,1,0,5.127,5.125A5.128,5.128,0,0,0,130.077,124.5Zm0,8.45a3.325,3.325,0,1,1,3.326-3.325A3.326,3.326,0,0,1,130.077,132.95Zm0,0" transform="translate(-120.654 -120.204)"/>
    <path id="Path_40" data-name="Path 40" d="M364.99,89.872a1.271,1.271,0,1,1-1.271-1.27A1.271,1.271,0,0,1,364.99,89.872Zm0,0" transform="translate(-349.35 -85.396)"/>
  </g>
</svg>
