<svg xmlns="http://www.w3.org/2000/svg" width="233.539" height="49" viewBox="0 0 233.539 49">
  <defs>
    <style>
      .cls-1, .cls-2 {
        fill: #fff;
      }

      .cls-1 {
        font-size: 47px;
        font-family: STHupo;
        letter-spacing: 0.015em;
      }

      .cls-2 {
        font-size: 10px;
        font-family: Inter;
        font-weight: 700;
        letter-spacing: 0.05em;
      }

      .cls-3 {
        fill: none;
      }

      .cls-4, .cls-5 {
        stroke: none;
      }

      .cls-5 {
        fill: #fff;
      }
    </style>
  </defs>
  <g id="logo" transform="translate(-564 -7)">
    <text id="POPMART" class="cls-1" transform="translate(671 45)"><tspan x="-106.22" y="0">POPMART</tspan></text>
    <g id="Group_7" data-name="Group 7" transform="translate(782.536 10.001)">
      <text id="R" class="cls-2" transform="translate(7.501 11.501)"><tspan x="-3.281" y="0">R</tspan></text>
      <g id="Path_49" data-name="Path 49" class="cls-3">
        <path class="cls-4" d="M7.5,0A7.5,7.5,0,1,1,0,7.5,7.5,7.5,0,0,1,7.5,0Z"/>
        <path class="cls-5" d="M 7.501217842102051 0.9999980926513672 C 3.916438102722168 0.9999980926513672 0.9999980926513672 3.916438102722168 0.9999980926513672 7.501217842102051 C 0.9999980926513672 11.08599758148193 3.916438102722168 14.00243759155273 7.501217842102051 14.00243759155273 C 11.08599758148193 14.00243759155273 14.00243759155273 11.08599758148193 14.00243759155273 7.501217842102051 C 14.00243759155273 3.916438102722168 11.08599758148193 0.9999980926513672 7.501217842102051 0.9999980926513672 M 7.501217842102051 -1.9073486328125e-06 C 11.64402770996094 -1.9073486328125e-06 15.00243759155273 3.358407974243164 15.00243759155273 7.501217842102051 C 15.00243759155273 11.64402770996094 11.64402770996094 15.00243759155273 7.501217842102051 15.00243759155273 C 3.358407974243164 15.00243759155273 -1.9073486328125e-06 11.64402770996094 -1.9073486328125e-06 7.501217842102051 C -1.9073486328125e-06 3.358407974243164 3.358407974243164 -1.9073486328125e-06 7.501217842102051 -1.9073486328125e-06 Z"/>
      </g>
    </g>
  </g>
</svg>
