<svg width="198" height="41" viewBox="0 0 198 41" fill="none" xmlns="http://www.w3.org/2000/svg">
<g filter="url(#filter0_d_205_36)">
<path d="M15.6141 21.4041V14.8637C17.109 14.8637 17.8565 14.2907 17.8565 13.1446C17.8565 12.0981 17.2834 11.5749 16.1373 11.5749C14.9912 11.5749 14.4181 12.285 14.4181 13.7052V30H6.98079V14.49C6.98079 12.3223 7.32961 10.5533 8.02725 9.18297C8.72489 7.81261 9.8461 6.6914 11.3909 5.81935C12.9606 4.92239 14.6548 4.47391 16.4737 4.47391C18.9901 4.47391 21.108 5.3335 22.8272 7.05268C24.5713 8.74694 25.4433 10.8523 25.4433 13.3688C25.4433 15.8853 24.6834 17.8536 23.1635 19.2738C21.6686 20.694 19.5258 21.4041 16.7353 21.4041H15.6141ZM40.7693 4.47391C43.1114 4.47391 45.2915 5.05943 47.3097 6.23046C49.3279 7.37658 50.9225 8.95873 52.0935 10.9769C53.2645 12.9701 53.8501 15.1254 53.8501 17.4425C53.8501 19.7597 53.2645 21.9273 52.0935 23.9455C50.9225 25.9387 49.3279 27.5209 47.3097 28.6919C45.2915 29.838 43.1114 30.4111 40.7693 30.4111C38.4273 30.4111 36.2472 29.838 34.229 28.6919C32.2108 27.5209 30.6162 25.9387 29.4452 23.9455C28.2741 21.9273 27.6886 19.7597 27.6886 17.4425C27.6886 15.1254 28.2741 12.9701 29.4452 10.9769C30.6162 8.95873 32.2108 7.37658 34.229 6.23046C36.2472 5.05943 38.4273 4.47391 40.7693 4.47391ZM40.732 23.1607C42.3266 23.1607 43.6845 22.6 44.8057 21.4788C45.9269 20.3576 46.4875 19.0122 46.4875 17.4425C46.4875 15.8728 45.9144 14.5274 44.7683 13.4062C43.6471 12.2601 42.3017 11.687 40.732 11.687C39.1623 11.687 37.8044 12.2601 36.6583 13.4062C35.5371 14.5274 34.9765 15.8728 34.9765 17.4425C34.9765 19.0122 35.5371 20.3576 36.6583 21.4788C37.7795 22.6 39.1374 23.1607 40.732 23.1607ZM65.4332 21.4041V14.8637C66.9282 14.8637 67.6756 14.2907 67.6756 13.1446C67.6756 12.0981 67.1026 11.5749 65.9564 11.5749C64.8103 11.5749 64.2373 12.285 64.2373 13.7052V30H56.7999V14.49C56.7999 12.3223 57.1488 10.5533 57.8464 9.18297C58.544 7.81261 59.6652 6.6914 61.21 5.81935C62.7797 4.92239 64.474 4.47391 66.2928 4.47391C68.8093 4.47391 70.9271 5.3335 72.6463 7.05268C74.3904 8.74694 75.2624 10.8523 75.2624 13.3688C75.2624 15.8853 74.5025 17.8536 72.9827 19.2738C71.4877 20.694 69.345 21.4041 66.5544 21.4041H65.4332ZM78.4795 30V12.0234C78.4795 9.80586 79.1522 7.99947 80.4977 6.6042C81.868 5.184 83.6246 4.47391 85.7673 4.47391C88.3336 4.47391 90.302 5.64494 91.6723 7.98702C92.4198 6.76615 93.2794 5.88164 94.2511 5.3335C95.2477 4.76044 96.4686 4.47391 97.9137 4.47391C100.156 4.47391 101.875 5.184 103.071 6.6042C104.267 7.99947 104.865 10.0301 104.865 12.6961V30H97.4278V13.7799C97.4278 13.0574 97.3656 12.5466 97.241 12.2476C97.1164 11.9486 96.8672 11.7991 96.4935 11.7991C95.746 11.7991 95.3723 12.422 95.3723 13.6678V30H87.9724V13.7799C87.9724 13.0823 87.9101 12.584 87.7855 12.285C87.6609 11.9611 87.3993 11.7991 87.0006 11.7991C86.2781 11.7991 85.9168 12.4594 85.9168 13.7799V30H78.4795ZM118.339 17.5173V24.0576H116.246V30H108.809V14.1536C108.809 11.089 109.644 8.70957 111.313 7.01531C112.982 5.32104 115.337 4.47391 118.377 4.47391C121.292 4.47391 123.447 5.24629 124.842 6.79106C126.237 8.33584 126.935 10.7028 126.935 13.892V30H119.535V14.3779C119.535 13.4311 119.411 12.7708 119.161 12.3971C118.937 11.9984 118.538 11.7991 117.965 11.7991C116.819 11.7991 116.246 12.6587 116.246 14.3779V17.5173H118.339ZM138.85 11.7991V30H131.45V5.07188H140.943C143.858 5.07188 146.15 5.84427 147.819 7.38904C149.514 8.9089 150.361 10.9021 150.361 13.3688C150.361 15.9102 149.252 18.028 147.034 19.7223L151.332 30H143.521L139.933 21.9647V15.5738H140.531C142.101 15.5738 142.886 14.9011 142.886 13.5557C142.886 12.3846 141.977 11.7991 140.158 11.7991H138.85ZM164.624 12.2476V30H157.224V12.2476H151.544V5.07188H170.268V12.2476H164.624Z" fill="white"/>
<path d="M183.999 13.6245V7.90226H186.363C186.792 7.90226 187.161 7.97956 187.473 8.13416C187.785 8.28691 188.027 8.50671 188.196 8.79356C188.366 9.07856 188.45 9.41664 188.45 9.80781C188.45 10.2046 188.364 10.5417 188.191 10.8193C188.017 11.0949 187.771 11.3054 187.453 11.4507C187.134 11.5942 186.757 11.6659 186.321 11.6659H184.827V10.5762H186.064C186.273 10.5762 186.447 10.5492 186.587 10.4952C186.728 10.4393 186.835 10.3554 186.908 10.2437C186.981 10.1301 187.017 9.98477 187.017 9.80781C187.017 9.63085 186.981 9.48463 186.908 9.36914C186.835 9.25179 186.728 9.16424 186.587 9.1065C186.445 9.04689 186.271 9.01709 186.064 9.01709H185.383V13.6245H183.999ZM187.221 11.0093L188.646 13.6245H187.137L185.74 11.0093H187.221Z" fill="white"/>
<path d="M186.099 16.0498C189.086 16.0498 191.508 13.628 191.508 10.6405C191.508 7.65304 189.086 5.2312 186.099 5.2312C183.111 5.2312 180.689 7.65304 180.689 10.6405C180.689 13.628 183.111 16.0498 186.099 16.0498Z" stroke="white" stroke-width="0.983513"/>
</g>
<defs>
<filter id="filter0_d_205_36" x="0.980957" y="2.47388" width="197.019" height="37.9373" filterUnits="userSpaceOnUse" color-interpolation-filters="sRGB">
<feFlood flood-opacity="0" result="BackgroundImageFix"/>
<feColorMatrix in="SourceAlpha" type="matrix" values="0 0 0 0 0 0 0 0 0 0 0 0 0 0 0 0 0 0 127 0" result="hardAlpha"/>
<feOffset dy="4"/>
<feGaussianBlur stdDeviation="3"/>
<feComposite in2="hardAlpha" operator="out"/>
<feColorMatrix type="matrix" values="0 0 0 0 0 0 0 0 0 0 0 0 0 0 0 0 0 0 0.12 0"/>
<feBlend mode="normal" in2="BackgroundImageFix" result="effect1_dropShadow_205_36"/>
<feBlend mode="normal" in="SourceGraphic" in2="effect1_dropShadow_205_36" result="shape"/>
</filter>
</defs>
</svg>
