<svg xmlns="http://www.w3.org/2000/svg" width="35" height="35" viewBox="0 0 35 35">
  <defs>
    <style>
      .cls-1 {
        fill: #fff;
      }
    </style>
  </defs>
  <g id="snapchat" transform="translate(0.005)">
    <g id="youtube">
      <g id="Group_21" data-name="Group 21" transform="translate(0)">
        <circle id="Ellipse_36" data-name="Ellipse 36" class="cls-1" cx="17.5" cy="17.5" r="17.5" transform="translate(-0.005)"/>
      </g>
    </g>
    <g id="_006-snapchat" data-name="006-snapchat" transform="translate(8.261 9.186)">
      <g id="Group_20" data-name="Group 20" transform="translate(0 0)">
        <path id="Path_42" data-name="Path 42" d="M17.522,29.577a4.961,4.961,0,0,1-3.4-2.917l-.013-.029a.682.682,0,0,1-.082-.555c.119-.281.621-.44.943-.541.091-.029.175-.056.243-.083.651-.257.977-.585.971-.977a.838.838,0,0,0-.61-.723,1.1,1.1,0,0,0-.416-.08.935.935,0,0,0-.389.08,1.977,1.977,0,0,1-.706.206.676.676,0,0,1-.19-.032c.006-.1.012-.2.019-.3l0-.052a8.932,8.932,0,0,0-.234-3.645,4.845,4.845,0,0,0-4.5-2.9l-.351,0a4.837,4.837,0,0,0-4.491,2.9,8.92,8.92,0,0,0-.233,3.646c.007.12.015.237.021.351a.7.7,0,0,1-.226.033,1.878,1.878,0,0,1-.768-.207,1.006,1.006,0,0,0-1.306.618c-.057.3.063.728.959,1.082.07.027.157.056.265.09.3.1.8.255.922.535a.714.714,0,0,1-.093.578A5.1,5.1,0,0,1,.4,29.567a.482.482,0,0,0-.4.5.617.617,0,0,0,.049.206c.2.462.95.783,2.365,1.007a2.97,2.97,0,0,1,.088.341c.03.137.061.278.1.424a.523.523,0,0,0,.541.4,2.4,2.4,0,0,0,.428-.059,4.548,4.548,0,0,1,.92-.1,4.064,4.064,0,0,1,.659.056,3.139,3.139,0,0,1,1.226.637,3.586,3.586,0,0,0,2.364.792c.03,0,.061,0,.09,0s.086,0,.129,0a4.483,4.483,0,0,0,2.643-.792,3.177,3.177,0,0,1,1.223-.636,4.08,4.08,0,0,1,.66-.056,4.6,4.6,0,0,1,.924.1,2.281,2.281,0,0,0,.444.052.514.514,0,0,0,.521-.39c.042-.144.073-.281.1-.421a3.049,3.049,0,0,1,.088-.338c1.4-.222,2.108-.53,2.305-.991a.609.609,0,0,0,.052-.211A.483.483,0,0,0,17.522,29.577Z" transform="translate(0.002 -17.029)"/>
      </g>
    </g>
  </g>
</svg>
