<svg width="187" height="39" viewBox="0 0 187 39" fill="none" xmlns="http://www.w3.org/2000/svg">
<path d="M10.6141 21.4041V14.8637C12.109 14.8637 12.8565 14.2907 12.8565 13.1446C12.8565 12.0981 12.2834 11.5749 11.1373 11.5749C9.99118 11.5749 9.41812 12.285 9.41812 13.7052V30H1.98079V14.49C1.98079 12.3223 2.32961 10.5533 3.02725 9.18297C3.72489 7.81261 4.8461 6.6914 6.39087 5.81935C7.96055 4.92239 9.65482 4.47391 11.4737 4.47391C13.9901 4.47391 16.108 5.3335 17.8272 7.05268C19.5713 8.74694 20.4433 10.8523 20.4433 13.3688C20.4433 15.8853 19.6834 17.8536 18.1635 19.2738C16.6686 20.694 14.5258 21.4041 11.7353 21.4041H10.6141ZM35.7693 4.47391C38.1114 4.47391 40.2915 5.05943 42.3097 6.23046C44.3279 7.37658 45.9225 8.95873 47.0935 10.9769C48.2645 12.9701 48.8501 15.1254 48.8501 17.4425C48.8501 19.7597 48.2645 21.9273 47.0935 23.9455C45.9225 25.9387 44.3279 27.5209 42.3097 28.6919C40.2915 29.838 38.1114 30.4111 35.7693 30.4111C33.4273 30.4111 31.2472 29.838 29.229 28.6919C27.2108 27.5209 25.6162 25.9387 24.4452 23.9455C23.2741 21.9273 22.6886 19.7597 22.6886 17.4425C22.6886 15.1254 23.2741 12.9701 24.4452 10.9769C25.6162 8.95873 27.2108 7.37658 29.229 6.23046C31.2472 5.05943 33.4273 4.47391 35.7693 4.47391ZM35.732 23.1607C37.3266 23.1607 38.6845 22.6 39.8057 21.4788C40.9269 20.3576 41.4875 19.0122 41.4875 17.4425C41.4875 15.8728 40.9144 14.5274 39.7683 13.4062C38.6471 12.2601 37.3017 11.687 35.732 11.687C34.1623 11.687 32.8044 12.2601 31.6583 13.4062C30.5371 14.5274 29.9765 15.8728 29.9765 17.4425C29.9765 19.0122 30.5371 20.3576 31.6583 21.4788C32.7795 22.6 34.1374 23.1607 35.732 23.1607ZM60.4332 21.4041V14.8637C61.9282 14.8637 62.6756 14.2907 62.6756 13.1446C62.6756 12.0981 62.1026 11.5749 60.9564 11.5749C59.8103 11.5749 59.2373 12.285 59.2373 13.7052V30H51.7999V14.49C51.7999 12.3223 52.1488 10.5533 52.8464 9.18297C53.544 7.81261 54.6652 6.6914 56.21 5.81935C57.7797 4.92239 59.474 4.47391 61.2928 4.47391C63.8093 4.47391 65.9271 5.3335 67.6463 7.05268C69.3904 8.74694 70.2624 10.8523 70.2624 13.3688C70.2624 15.8853 69.5025 17.8536 67.9827 19.2738C66.4877 20.694 64.345 21.4041 61.5544 21.4041H60.4332ZM73.4795 30V12.0234C73.4795 9.80586 74.1522 7.99947 75.4977 6.6042C76.868 5.184 78.6246 4.47391 80.7673 4.47391C83.3336 4.47391 85.302 5.64494 86.6723 7.98702C87.4198 6.76615 88.2794 5.88164 89.2511 5.3335C90.2477 4.76044 91.4686 4.47391 92.9137 4.47391C95.1561 4.47391 96.8753 5.184 98.0712 6.6042C99.2672 7.99947 99.8652 10.0301 99.8652 12.6961V30H92.4278V13.7799C92.4278 13.0574 92.3656 12.5466 92.241 12.2476C92.1164 11.9486 91.8672 11.7991 91.4935 11.7991C90.746 11.7991 90.3723 12.422 90.3723 13.6678V30H82.9724V13.7799C82.9724 13.0823 82.9101 12.584 82.7855 12.285C82.6609 11.9611 82.3993 11.7991 82.0006 11.7991C81.2781 11.7991 80.9168 12.4594 80.9168 13.7799V30H73.4795ZM113.339 17.5173V24.0576H111.246V30H103.809V14.1536C103.809 11.089 104.644 8.70957 106.313 7.01531C107.982 5.32104 110.337 4.47391 113.377 4.47391C116.292 4.47391 118.447 5.24629 119.842 6.79106C121.237 8.33584 121.935 10.7028 121.935 13.892V30H114.535V14.3779C114.535 13.4311 114.411 12.7708 114.161 12.3971C113.937 11.9984 113.538 11.7991 112.965 11.7991C111.819 11.7991 111.246 12.6587 111.246 14.3779V17.5173H113.339ZM133.85 11.7991V30H126.45V5.07188H135.943C138.858 5.07188 141.15 5.84427 142.819 7.38904C144.514 8.9089 145.361 10.9021 145.361 13.3688C145.361 15.9102 144.252 18.028 142.034 19.7223L146.332 30H138.521L134.933 21.9647V15.5738H135.531C137.101 15.5738 137.886 14.9011 137.886 13.5557C137.886 12.3846 136.977 11.7991 135.158 11.7991H133.85ZM159.624 12.2476V30H152.224V12.2476H146.544V5.07188H165.268V12.2476H159.624Z" fill="white"/>
<path d="M178.999 13.6245V7.90226H181.363C181.792 7.90226 182.161 7.97956 182.473 8.13416C182.785 8.28691 183.027 8.50671 183.196 8.79356C183.366 9.07856 183.45 9.41664 183.45 9.80781C183.45 10.2046 183.364 10.5417 183.191 10.8193C183.017 11.0949 182.771 11.3054 182.453 11.4507C182.134 11.5942 181.757 11.6659 181.321 11.6659H179.827V10.5762H181.064C181.273 10.5762 181.447 10.5492 181.587 10.4952C181.728 10.4393 181.835 10.3554 181.908 10.2437C181.981 10.1301 182.017 9.98477 182.017 9.80781C182.017 9.63085 181.981 9.48463 181.908 9.36914C181.835 9.25179 181.728 9.16424 181.587 9.1065C181.445 9.04689 181.271 9.01709 181.064 9.01709H180.383V13.6245H178.999ZM182.221 11.0093L183.646 13.6245H182.137L180.74 11.0093H182.221Z" fill="white"/>
<path d="M181.099 16.0498C184.086 16.0498 186.508 13.628 186.508 10.6405C186.508 7.65304 184.086 5.2312 181.099 5.2312C178.111 5.2312 175.689 7.65304 175.689 10.6405C175.689 13.628 178.111 16.0498 181.099 16.0498Z" stroke="white" stroke-width="0.983513"/>
</svg>
